{
  "accessors": [
    {
      "bufferView": 2,
      "componentType": 5126,
      "count": 2569,
      "max": [
        3.289839267730713,
        2.534256935119629,
        3.186736822128296
      ],
      "min": [
        -3.1328325271606445,
        -0.7546961903572083,
        -3.229401111602783
      ],
      "type": "VEC3"
    },
    {
      "bufferView": 2,
      "byteOffset": 30828,
      "componentType": 5126,
      "count": 2569,
      "max": [
        0.9993674755096436,
        1.0,
        0.9898961782455444
      ],
      "min": [
        -0.9936397671699524,
        -0.9995439052581787,
        -0.995660662651062
      ],
      "type": "VEC3"
    },
    {
      "bufferView": 3,
      "componentType": 5126,
      "count": 2569,
      "max": [
        1.0,
        0.9999625086784363,
        0.9962021708488464,
        1.0
      ],
      "min": [
        -0.9936411380767822,
        -0.9986125826835632,
        -0.9924280047416687,
        -1.0
      ],
      "type": "VEC4"
    },
    {
      "bufferView": 1,
      "componentType": 5126,
      "count": 2569,
      "max": [
        0.9991145133972168,
        0.9971907138824463
      ],
      "min": [
        0.006539760157465935,
        0.0024380639661103487
      ],
      "type": "VEC2"
    },
    {
      "bufferView": 1,
      "byteOffset": 20552,
      "componentType": 5126,
      "count": 2569,
      "max": [
        0.9991145133972168,
        0.9971907138824463
      ],
      "min": [
        0.006539760157465935,
        0.0024380639661103487
      ],
      "type": "VEC2"
    },
    {
      "bufferView": 1,
      "byteOffset": 41104,
      "componentType": 5126,
      "count": 2569,
      "max": [
        0.9991145133972168,
        0.9971907138824463
      ],
      "min": [
        0.006539760157465935,
        0.0024380639661103487
      ],
      "type": "VEC2"
    },
    {
      "bufferView": 1,
      "byteOffset": 61656,
      "componentType": 5126,
      "count": 2569,
      "max": [
        0.9991145133972168,
        0.9971907138824463
      ],
      "min": [
        0.006539760157465935,
        0.0024380639661103487
      ],
      "type": "VEC2"
    },
    {
      "bufferView": 1,
      "byteOffset": 82208,
      "componentType": 5126,
      "count": 2569,
      "max": [
        0.9991145133972168,
        0.9971907138824463
      ],
      "min": [
        0.006539760157465935,
        0.0024380639661103487
      ],
      "type": "VEC2"
    },
    {
      "bufferView": 0,
      "componentType": 5125,
      "count": 8184,
      "type": "SCALAR"
    }
  ],
  "asset": {
    "extras": {
      "author": "LEX_GFX (https://sketchfab.com/boltex360)",
      "license": "CC-BY-4.0 (http://creativecommons.org/licenses/by/4.0/)",
      "source": "https://sketchfab.com/3d-models/lowpoly-bonfire-6c0ca6f74536435ab7d54eb17a1155bb",
      "title": "LowPoly bonfire"
    },
    "generator": "Sketchfab-10.73.0",
    "version": "2.0"
  },
  "bufferViews": [
    {
      "buffer": 0,
      "byteLength": 32736,
      "name": "floatBufferViews",
      "target": 34963
    },
    {
      "buffer": 0,
      "byteLength": 102760,
      "byteOffset": 32736,
      "byteStride": 8,
      "name": "floatBufferViews",
      "target": 34962
    },
    {
      "buffer": 0,
      "byteLength": 61656,
      "byteOffset": 135496,
      "byteStride": 12,
      "name": "floatBufferViews",
      "target": 34962
    },
    {
      "buffer": 0,
      "byteLength": 41104,
      "byteOffset": 197152,
      "byteStride": 16,
      "name": "floatBufferViews",
      "target": 34962
    }
  ],
  "buffers": [
    {
      "byteLength": 238256,
      "uri": "scene.bin"
    }
  ],
  "images": [
    {
      "uri": "textures/lambert1.002_baseColor.png"
    },
    {
      "uri": "textures/lambert1.002_metallicRoughness.png"
    },
    {
      "uri": "textures/lambert1.002_emissive.png"
    },
    {
      "uri": "textures/lambert1.002_normal.png"
    }
  ],
  "materials": [
    {
      "doubleSided": true,
      "emissiveFactor": [
        1.0,
        1.0,
        1.0
      ],
      "emissiveTexture": {
        "index": 2
      },
      "name": "lambert1.002",
      "normalTexture": {
        "index": 3,
        "scale": 0.6
      },
      "pbrMetallicRoughness": {
        "baseColorTexture": {
          "index": 0
        },
        "metallicRoughnessTexture": {
          "index": 1
        }
      }
    }
  ],
  "meshes": [
    {
      "name": "Object_0",
      "primitives": [
        {
          "attributes": {
            "NORMAL": 1,
            "POSITION": 0,
            "TANGENT": 2,
            "TEXCOORD_0": 3,
            "TEXCOORD_1": 4,
            "TEXCOORD_2": 5,
            "TEXCOORD_3": 6,
            "TEXCOORD_4": 7
          },
          "indices": 8,
          "material": 0,
          "mode": 4
        }
      ]
    }
  ],
  "nodes": [
    {
      "children": [
        1
      ],
      "matrix": [
        1.0,
        0.0,
        0.0,
        0.0,
        0.0,
        2.220446049250313e-16,
        -1.0,
        0.0,
        0.0,
        1.0,
        2.220446049250313e-16,
        0.0,
        0.0,
        0.0,
        0.0,
        1.0
      ],
      "name": "Sketchfab_model"
    },
    {
      "children": [
        2
      ],
      "name": "root"
    },
    {
      "children": [
        3
      ],
      "matrix": [
        1.0,
        0.0,
        0.0,
        0.0,
        0.0,
        2.220446049250313e-16,
        1.0,
        0.0,
        0.0,
        -1.0,
        2.220446049250313e-16,
        0.0,
        0.0,
        0.0,
        0.0,
        1.0
      ],
      "name": "GLTF_SceneRootNode"
    },
    {
      "children": [
        4
      ],
      "name": "palo1_4"
    },
    {
      "mesh": 0,
      "name": "Object_4"
    }
  ],
  "samplers": [
    {
      "magFilter": 9729,
      "minFilter": 9987,
      "wrapS": 10497,
      "wrapT": 10497
    }
  ],
  "scene": 0,
  "scenes": [
    {
      "name": "Sketchfab_Scene",
      "nodes": [
        0
      ]
    }
  ],
  "textures": [
    {
      "sampler": 0,
      "source": 0
    },
    {
      "sampler": 0,
      "source": 1
    },
    {
      "sampler": 0,
      "source": 2
    },
    {
      "sampler": 0,
      "source": 3
    }
  ]
}
